<svg xmlns="http://www.w3.org/2000/svg" xmlns:xlink="http://www.w3.org/1999/xlink" width="360pt" height="201pt" viewBox="0.00 0.00 360.00 200.65">
<g id="graph0" class="graph" transform="scale(0.77 0.77) rotate(0) translate(4 256)">
<title>G</title>
<!-- Resting BP -->
<g id="node1" class="node">
<title>Resting BP</title>
<g id="a_node1"><a xlink:title="(6) Resting BP">
<ellipse fill="#404040" stroke="black" cx="272" cy="-162" rx="51.99" ry="18"/>
<text text-anchor="middle" x="272" y="-158.3" font-family="Times New Roman,serif" font-size="14.00" fill="white">Resting BP</text>
</a>
</g>
</g>
<!-- Heart Disease -->
<g id="node4" class="node">
<title>Heart Disease</title>
<g id="a_node4"><a xlink:title="(0) Heart Disease">
<ellipse fill="#404040" stroke="black" cx="162" cy="-90" rx="60.39" ry="18"/>
<text text-anchor="middle" x="162" y="-86.3" font-family="Times New Roman,serif" font-size="14.00" fill="white">Heart Disease</text>
</a>
</g>
</g>
<!-- Resting BP&#45;&gt;Heart Disease -->
<g id="edge5" class="edge">
<title>Resting BP-&gt;Heart Disease</title>
<g id="a_edge5"><a xlink:title="(6, 0) : ">
<path fill="none" stroke="#4a4a4a" d="M248.13,-145.81C232.63,-135.95 212.22,-122.96 195.15,-112.1"/>
<polygon fill="#4a4a4a" stroke="#4a4a4a" points="196.89,-109.06 186.58,-106.64 193.14,-114.97 196.89,-109.06"/>
</a>
</g>
</g>
<!-- Chest Pain Type -->
<g id="node2" class="node">
<title>Chest Pain Type</title>
<g id="a_node2"><a xlink:title="(1) Chest Pain Type">
<ellipse fill="#404040" stroke="black" cx="387" cy="-18" rx="71.49" ry="18"/>
<text text-anchor="middle" x="387" y="-14.3" font-family="Times New Roman,serif" font-size="14.00" fill="white">Chest Pain Type</text>
</a>
</g>
</g>
<!-- Exercise Angina -->
<g id="node3" class="node">
<title>Exercise Angina</title>
<g id="a_node3"><a xlink:title="(4) Exercise Angina">
<ellipse fill="#404040" stroke="black" cx="387" cy="-90" rx="69.59" ry="18"/>
<text text-anchor="middle" x="387" y="-86.3" font-family="Times New Roman,serif" font-size="14.00" fill="white">Exercise Angina</text>
</a>
</g>
</g>
<!-- Exercise Angina&#45;&gt;Chest Pain Type -->
<g id="edge6" class="edge">
<title>Exercise Angina-&gt;Chest Pain Type</title>
<g id="a_edge6"><a xlink:title="(4, 1) : ">
<path fill="none" stroke="#4a4a4a" d="M387,-71.7C387,-63.98 387,-54.71 387,-46.11"/>
<polygon fill="#4a4a4a" stroke="#4a4a4a" points="390.5,-46.1 387,-36.1 383.5,-46.1 390.5,-46.1"/>
</a>
</g>
</g>
<!-- Cholesterol -->
<g id="node5" class="node">
<title>Cholesterol</title>
<g id="a_node5"><a xlink:title="(7) Cholesterol">
<ellipse fill="#404040" stroke="black" cx="52" cy="-162" rx="51.99" ry="18"/>
<text text-anchor="middle" x="52" y="-158.3" font-family="Times New Roman,serif" font-size="14.00" fill="white">Cholesterol</text>
</a>
</g>
</g>
<!-- Cholesterol&#45;&gt;Heart Disease -->
<g id="edge2" class="edge">
<title>Cholesterol-&gt;Heart Disease</title>
<g id="a_edge2"><a xlink:title="(7, 0) : ">
<path fill="none" stroke="#4a4a4a" d="M75.86,-145.81C91.36,-135.95 111.77,-122.96 128.84,-112.1"/>
<polygon fill="#4a4a4a" stroke="#4a4a4a" points="130.85,-114.97 137.41,-106.64 127.1,-109.06 130.85,-114.97"/>
</a>
</g>
</g>
<!-- ST Slope -->
<g id="node6" class="node">
<title>ST Slope</title>
<g id="a_node6"><a xlink:title="(2) ST Slope">
<ellipse fill="#404040" stroke="black" cx="387" cy="-162" rx="45.49" ry="18"/>
<text text-anchor="middle" x="387" y="-158.3" font-family="Times New Roman,serif" font-size="14.00" fill="white">ST Slope</text>
</a>
</g>
</g>
<!-- ST Slope&#45;&gt;Exercise Angina -->
<g id="edge1" class="edge">
<title>ST Slope-&gt;Exercise Angina</title>
<g id="a_edge1"><a xlink:title="(2, 4) : ">
<path fill="none" stroke="#4a4a4a" d="M387,-143.7C387,-135.98 387,-126.71 387,-118.11"/>
<polygon fill="#4a4a4a" stroke="#4a4a4a" points="390.5,-118.1 387,-108.1 383.5,-118.1 390.5,-118.1"/>
</a>
</g>
</g>
<!-- Age -->
<g id="node7" class="node">
<title>Age</title>
<g id="a_node7"><a xlink:title="(5) Age">
<ellipse fill="#404040" stroke="black" cx="329" cy="-234" rx="27" ry="18"/>
<text text-anchor="middle" x="329" y="-230.3" font-family="Times New Roman,serif" font-size="14.00" fill="white">Age</text>
</a>
</g>
</g>
<!-- Age&#45;&gt;Resting BP -->
<g id="edge4" class="edge">
<title>Age-&gt;Resting BP</title>
<g id="a_edge4"><a xlink:title="(5, 6) : ">
<path fill="none" stroke="#4a4a4a" d="M316.63,-217.81C309.39,-208.93 300.09,-197.5 291.85,-187.39"/>
<polygon fill="#4a4a4a" stroke="#4a4a4a" points="294.56,-185.17 285.54,-179.63 289.14,-189.59 294.56,-185.17"/>
</a>
</g>
</g>
<!-- Age&#45;&gt;ST Slope -->
<g id="edge7" class="edge">
<title>Age-&gt;ST Slope</title>
<g id="a_edge7"><a xlink:title="(5, 2) : ">
<path fill="none" stroke="#4a4a4a" d="M341.58,-217.81C348.94,-208.93 358.41,-197.5 366.79,-187.39"/>
<polygon fill="#4a4a4a" stroke="#4a4a4a" points="369.53,-189.56 373.22,-179.63 364.14,-185.1 369.53,-189.56"/>
</a>
</g>
</g>
<!-- Diabetic -->
<g id="node8" class="node">
<title>Diabetic</title>
<g id="a_node8"><a xlink:title="(3) Diabetic">
<ellipse fill="#404040" stroke="black" cx="162" cy="-162" rx="40.09" ry="18"/>
<text text-anchor="middle" x="162" y="-158.3" font-family="Times New Roman,serif" font-size="14.00" fill="white">Diabetic</text>
</a>
</g>
</g>
<!-- Diabetic&#45;&gt;Heart Disease -->
<g id="edge3" class="edge">
<title>Diabetic-&gt;Heart Disease</title>
<g id="a_edge3"><a xlink:title="(3, 0) : ">
<path fill="none" stroke="#4a4a4a" d="M162,-143.7C162,-135.98 162,-126.71 162,-118.11"/>
<polygon fill="#4a4a4a" stroke="#4a4a4a" points="165.5,-118.1 162,-108.1 158.5,-118.1 165.5,-118.1"/>
</a>
</g>
</g>
</g>
</svg>